<svg width="216" height="110" viewBox="0 0 216 110" fill="none" xmlns="http://www.w3.org/2000/svg">
<g filter="url(#filter0_d)">
<rect x="2" width="208" height="102" rx="15" fill="url(#paint0_linear)"/>
</g>
<g filter="url(#filter1_i)">
<rect x="180" y="16" width="18" height="18" rx="9" fill="#252525"/>
</g>
<path d="M28.9893 30H26.9385V25.7344H22.9395V30H20.8887V20.0469H22.9395V24.0801H26.9385V20.0469H28.9893V30ZM32.7422 30H30.7598V22.6035H32.7422V30ZM30.6436 20.6895C30.6436 20.3932 30.7415 20.1494 30.9375 19.958C31.138 19.7666 31.4092 19.6709 31.751 19.6709C32.0882 19.6709 32.3571 19.7666 32.5576 19.958C32.7581 20.1494 32.8584 20.3932 32.8584 20.6895C32.8584 20.9902 32.7559 21.2363 32.5508 21.4277C32.3503 21.6191 32.0837 21.7148 31.751 21.7148C31.4183 21.7148 31.1494 21.6191 30.9443 21.4277C30.7438 21.2363 30.6436 20.9902 30.6436 20.6895ZM34.8887 32.4951L33.8564 31.9551L34.1025 31.5107C34.4079 30.9548 34.5651 30.401 34.5742 29.8496V28.3184H36.2422L36.2354 29.6855C36.2308 30.1914 36.1032 30.7018 35.8525 31.2168C35.6019 31.7318 35.2806 32.1579 34.8887 32.4951ZM45.4229 20.0469H47.4736V26.9375C47.4736 27.571 47.3324 28.1315 47.0498 28.6191C46.7718 29.1022 46.3776 29.4759 45.8672 29.7402C45.3568 30.0046 44.7803 30.1367 44.1377 30.1367C43.085 30.1367 42.2646 29.8701 41.6768 29.3369C41.0889 28.7992 40.7949 28.0404 40.7949 27.0605H42.8594C42.8594 27.5482 42.9619 27.9082 43.167 28.1406C43.3721 28.373 43.6956 28.4893 44.1377 28.4893C44.5296 28.4893 44.8418 28.3548 45.0742 28.0859C45.3066 27.8171 45.4229 27.4342 45.4229 26.9375V20.0469ZM48.793 26.2334C48.793 25.4997 48.9342 24.8457 49.2168 24.2715C49.4993 23.6973 49.9049 23.2529 50.4336 22.9385C50.9668 22.624 51.5843 22.4668 52.2861 22.4668C53.2842 22.4668 54.0977 22.7721 54.7266 23.3828C55.36 23.9935 55.7132 24.8229 55.7861 25.8711L55.7998 26.377C55.7998 27.5117 55.4831 28.4232 54.8496 29.1113C54.2161 29.7949 53.3662 30.1367 52.2998 30.1367C51.2334 30.1367 50.3812 29.7949 49.7432 29.1113C49.1097 28.4277 48.793 27.498 48.793 26.3223V26.2334ZM50.7686 26.377C50.7686 27.0788 50.9007 27.6165 51.165 27.9902C51.4294 28.3594 51.8076 28.5439 52.2998 28.5439C52.7783 28.5439 53.152 28.3617 53.4209 27.9971C53.6898 27.6279 53.8242 27.04 53.8242 26.2334C53.8242 25.5452 53.6898 25.012 53.4209 24.6338C53.152 24.2555 52.7738 24.0664 52.2861 24.0664C51.8031 24.0664 51.4294 24.2555 51.165 24.6338C50.9007 25.0075 50.7686 25.5885 50.7686 26.377ZM58.9443 23.4102C59.4684 22.7812 60.127 22.4668 60.9199 22.4668C62.5241 22.4668 63.3376 23.3988 63.3604 25.2627V30H61.3848V25.3174C61.3848 24.8936 61.2936 24.5814 61.1113 24.3809C60.929 24.1758 60.626 24.0732 60.2021 24.0732C59.6234 24.0732 59.2041 24.2965 58.9443 24.7432V30H56.9688V19.5H58.9443V23.4102ZM66.6689 22.6035L66.7305 23.458C67.2591 22.7972 67.9678 22.4668 68.8564 22.4668C69.6403 22.4668 70.2236 22.6969 70.6064 23.1572C70.9893 23.6175 71.1852 24.3057 71.1943 25.2217V30H69.2188V25.2695C69.2188 24.8503 69.1276 24.5472 68.9453 24.3604C68.763 24.1689 68.46 24.0732 68.0361 24.0732C67.4801 24.0732 67.0632 24.3102 66.7852 24.7842V30H64.8096V22.6035H66.6689ZM76.3145 30V20.0469H79.377C80.252 20.0469 81.0335 20.2451 81.7217 20.6416C82.4144 21.0335 82.9544 21.5941 83.3418 22.3232C83.7292 23.0479 83.9229 23.8727 83.9229 24.7979V25.2559C83.9229 26.181 83.7314 27.0036 83.3486 27.7236C82.9704 28.4437 82.4349 29.002 81.7422 29.3984C81.0495 29.7949 80.2679 29.9954 79.3975 30H76.3145ZM78.3652 21.708V28.3525H79.3564C80.1585 28.3525 80.7715 28.0905 81.1953 27.5664C81.6191 27.0423 81.8356 26.2926 81.8447 25.3174V24.791C81.8447 23.7793 81.6351 23.0137 81.2158 22.4941C80.7965 21.9701 80.1836 21.708 79.377 21.708H78.3652ZM84.9824 26.2334C84.9824 25.4997 85.1237 24.8457 85.4062 24.2715C85.6888 23.6973 86.0944 23.2529 86.623 22.9385C87.1562 22.624 87.7738 22.4668 88.4756 22.4668C89.4736 22.4668 90.2871 22.7721 90.916 23.3828C91.5495 23.9935 91.9027 24.8229 91.9756 25.8711L91.9893 26.377C91.9893 27.5117 91.6725 28.4232 91.0391 29.1113C90.4056 29.7949 89.5557 30.1367 88.4893 30.1367C87.4229 30.1367 86.5706 29.7949 85.9326 29.1113C85.2992 28.4277 84.9824 27.498 84.9824 26.3223V26.2334ZM86.958 26.377C86.958 27.0788 87.0902 27.6165 87.3545 27.9902C87.6188 28.3594 87.9971 28.5439 88.4893 28.5439C88.9678 28.5439 89.3415 28.3617 89.6104 27.9971C89.8792 27.6279 90.0137 27.04 90.0137 26.2334C90.0137 25.5452 89.8792 25.012 89.6104 24.6338C89.3415 24.2555 88.9632 24.0664 88.4756 24.0664C87.9925 24.0664 87.6188 24.2555 87.3545 24.6338C87.0902 25.0075 86.958 25.5885 86.958 26.377ZM96.6104 30.1367C95.5257 30.1367 94.6416 29.804 93.958 29.1387C93.279 28.4733 92.9395 27.5869 92.9395 26.4795V26.2881C92.9395 25.5452 93.083 24.8822 93.3701 24.2988C93.6572 23.7109 94.0628 23.2598 94.5869 22.9453C95.1156 22.6263 95.7171 22.4668 96.3916 22.4668C97.4033 22.4668 98.1986 22.7858 98.7773 23.4238C99.3607 24.0618 99.6523 24.9665 99.6523 26.1377V26.9443H94.9424C95.0062 27.4274 95.1976 27.8148 95.5166 28.1064C95.8402 28.3981 96.248 28.5439 96.7402 28.5439C97.5013 28.5439 98.096 28.2682 98.5244 27.7168L99.4951 28.8037C99.1989 29.223 98.7979 29.5511 98.292 29.7881C97.7861 30.0205 97.2256 30.1367 96.6104 30.1367ZM96.3848 24.0664C95.9928 24.0664 95.6738 24.1986 95.4277 24.4629C95.1862 24.7272 95.0312 25.1055 94.9629 25.5977H97.7109V25.4404C97.7018 25.0029 97.5833 24.6657 97.3555 24.4287C97.1276 24.1872 96.804 24.0664 96.3848 24.0664Z" fill="white"/>
<path d="M189.391 24.6045L191.387 21.6035H192.357L189.849 25.2334L192.467 29H191.503L189.397 25.8691L187.292 29H186.328L188.939 25.2334L186.431 21.6035H187.395L189.391 24.6045Z" fill="white"/>
<path d="M24.8242 39.3242C24.6576 39.5612 24.3958 39.7461 24.0391 39.8789C23.6849 40.0117 23.2878 40.0781 22.8477 40.0781C22.4023 40.0781 22.0065 39.9714 21.6602 39.7578C21.3138 39.5443 21.0456 39.2422 20.8555 38.8516C20.6654 38.4609 20.569 38.013 20.5664 37.5078V36.7891C20.5664 36 20.7656 35.3776 21.1641 34.9219C21.5625 34.4635 22.0977 34.2344 22.7695 34.2344C23.3555 34.2344 23.8268 34.3841 24.1836 34.6836C24.5404 34.9805 24.7526 35.3906 24.8203 35.9141H24.3398C24.2695 35.4974 24.099 35.1823 23.8281 34.9688C23.5599 34.7526 23.2083 34.6445 22.7734 34.6445C22.2422 34.6445 21.8216 34.8333 21.5117 35.2109C21.2018 35.5885 21.0469 36.1211 21.0469 36.8086V37.4805C21.0469 37.9128 21.1198 38.2956 21.2656 38.6289C21.4141 38.9596 21.625 39.2161 21.8984 39.3984C22.1745 39.5807 22.4909 39.6719 22.8477 39.6719C23.2617 39.6719 23.6172 39.6068 23.9141 39.4766C24.1068 39.3906 24.25 39.2904 24.3438 39.1758V37.707H22.8164V37.3008H24.8242V39.3242ZM27.7148 40.0781C27.3555 40.0781 27.0299 39.9896 26.7383 39.8125C26.4492 39.6354 26.224 39.3893 26.0625 39.0742C25.901 38.7565 25.8203 38.401 25.8203 38.0078V37.8398C25.8203 37.4336 25.8984 37.0677 26.0547 36.7422C26.2135 36.4167 26.4336 36.1615 26.7148 35.9766C26.9961 35.7891 27.3008 35.6953 27.6289 35.6953C28.1419 35.6953 28.5482 35.8711 28.8477 36.2227C29.1497 36.5716 29.3008 37.0495 29.3008 37.6562V37.918H26.2852V38.0078C26.2852 38.487 26.4219 38.8867 26.6953 39.207C26.9714 39.5247 27.3177 39.6836 27.7344 39.6836C27.9844 39.6836 28.2044 39.638 28.3945 39.5469C28.5872 39.4557 28.7617 39.3099 28.918 39.1094L29.2109 39.332C28.8672 39.8294 28.3685 40.0781 27.7148 40.0781ZM27.6289 36.0938C27.2773 36.0938 26.9805 36.2227 26.7383 36.4805C26.4987 36.7383 26.3529 37.0846 26.3008 37.5195H28.8359V37.4688C28.8229 37.0625 28.707 36.7318 28.4883 36.4766C28.2695 36.2214 27.9831 36.0938 27.6289 36.0938ZM30.9375 34.6914V35.7734H31.8125V36.1562H30.9375V38.9727C30.9375 39.207 30.9792 39.3815 31.0625 39.4961C31.1484 39.6107 31.2904 39.668 31.4883 39.668C31.5664 39.668 31.6927 39.6549 31.8672 39.6289L31.8867 40.0117C31.7643 40.056 31.5977 40.0781 31.3867 40.0781C31.0664 40.0781 30.8333 39.9857 30.6875 39.8008C30.5417 39.6133 30.4688 39.3385 30.4688 38.9766V36.1562H29.6914V35.7734H30.4688V34.6914H30.9375ZM34.5391 37.8477C34.5391 37.1914 34.6849 36.6693 34.9766 36.2812C35.2708 35.8906 35.6693 35.6953 36.1719 35.6953C36.7422 35.6953 37.1771 35.9206 37.4766 36.3711V34H37.9414V40H37.5039L37.4844 39.4375C37.1849 39.8646 36.7448 40.0781 36.1641 40.0781C35.6771 40.0781 35.2839 39.8828 34.9844 39.4922C34.6875 39.099 34.5391 38.569 34.5391 37.9023V37.8477ZM35.0117 37.9297C35.0117 38.4688 35.1198 38.8945 35.3359 39.207C35.5521 39.5169 35.8568 39.6719 36.25 39.6719C36.8255 39.6719 37.2344 39.418 37.4766 38.9102V36.9258C37.2344 36.3763 36.8281 36.1016 36.2578 36.1016C35.8646 36.1016 35.5586 36.2565 35.3398 36.5664C35.1211 36.8737 35.0117 37.3281 35.0117 37.9297ZM38.9141 37.8242C38.9141 37.418 38.9922 37.0521 39.1484 36.7266C39.3073 36.401 39.5299 36.1484 39.8164 35.9688C40.1055 35.7865 40.4323 35.6953 40.7969 35.6953C41.3594 35.6953 41.8151 35.8932 42.1641 36.2891C42.513 36.6823 42.6875 37.2044 42.6875 37.8555V37.9531C42.6875 38.362 42.6081 38.7305 42.4492 39.0586C42.293 39.3841 42.0716 39.6354 41.7852 39.8125C41.4987 39.9896 41.1719 40.0781 40.8047 40.0781C40.2448 40.0781 39.7891 39.8815 39.4375 39.4883C39.0885 39.0924 38.9141 38.569 38.9141 37.918V37.8242ZM39.3828 37.9531C39.3828 38.4583 39.513 38.8737 39.7734 39.1992C40.0365 39.5221 40.3802 39.6836 40.8047 39.6836C41.2266 39.6836 41.5677 39.5221 41.8281 39.1992C42.0911 38.8737 42.2227 38.4453 42.2227 37.9141V37.8242C42.2227 37.5013 42.1628 37.2057 42.043 36.9375C41.9232 36.6693 41.7552 36.4622 41.5391 36.3164C41.3229 36.168 41.0755 36.0938 40.7969 36.0938C40.3802 36.0938 40.0404 36.2578 39.7773 36.5859C39.5143 36.9115 39.3828 37.3385 39.3828 37.8672V37.9531ZM44.1016 35.7734L44.1172 36.4961C44.276 36.2357 44.474 36.0378 44.7109 35.9023C44.9479 35.7643 45.2096 35.6953 45.4961 35.6953C45.9492 35.6953 46.2865 35.8229 46.5078 36.0781C46.7292 36.3333 46.8411 36.7161 46.8438 37.2266V40H46.3789V37.2227C46.3763 36.8451 46.2956 36.5638 46.1367 36.3789C45.9805 36.194 45.7292 36.1016 45.3828 36.1016C45.0938 36.1016 44.8372 36.1927 44.6133 36.375C44.3919 36.5547 44.2279 36.7982 44.1211 37.1055V40H43.6562V35.7734H44.1016ZM49.6914 40.0781C49.332 40.0781 49.0065 39.9896 48.7148 39.8125C48.4258 39.6354 48.2005 39.3893 48.0391 39.0742C47.8776 38.7565 47.7969 38.401 47.7969 38.0078V37.8398C47.7969 37.4336 47.875 37.0677 48.0312 36.7422C48.1901 36.4167 48.4102 36.1615 48.6914 35.9766C48.9727 35.7891 49.2773 35.6953 49.6055 35.6953C50.1185 35.6953 50.5247 35.8711 50.8242 36.2227C51.1263 36.5716 51.2773 37.0495 51.2773 37.6562V37.918H48.2617V38.0078C48.2617 38.487 48.3984 38.8867 48.6719 39.207C48.9479 39.5247 49.2943 39.6836 49.7109 39.6836C49.9609 39.6836 50.181 39.638 50.3711 39.5469C50.5638 39.4557 50.7383 39.3099 50.8945 39.1094L51.1875 39.332C50.8438 39.8294 50.3451 40.0781 49.6914 40.0781ZM49.6055 36.0938C49.2539 36.0938 48.957 36.2227 48.7148 36.4805C48.4753 36.7383 48.3294 37.0846 48.2773 37.5195H50.8125V37.4688C50.7995 37.0625 50.6836 36.7318 50.4648 36.4766C50.2461 36.2214 49.9596 36.0938 49.6055 36.0938ZM55.1445 39.0273L55.2148 39.3906L55.3086 39.0078L56.3242 35.7734H56.7227L57.7266 38.9805L57.8359 39.4258L57.9258 39.0156L58.793 35.7734H59.2773L58.0469 40H57.6484L56.5625 36.6484L56.5117 36.418L56.4609 36.6523L55.3945 40H54.9961L53.7695 35.7734H54.25L55.1445 39.0273ZM60.6875 40H60.2188V35.7734H60.6875V40ZM60.1367 34.5508C60.1367 34.4622 60.1654 34.388 60.2227 34.3281C60.2799 34.2656 60.3581 34.2344 60.457 34.2344C60.556 34.2344 60.6341 34.2656 60.6914 34.3281C60.7513 34.388 60.7812 34.4622 60.7812 34.5508C60.7812 34.6393 60.7513 34.7135 60.6914 34.7734C60.6341 34.8333 60.556 34.8633 60.457 34.8633C60.3581 34.8633 60.2799 34.8333 60.2227 34.7734C60.1654 34.7135 60.1367 34.6393 60.1367 34.5508ZM62.6875 34.6914V35.7734H63.5625V36.1562H62.6875V38.9727C62.6875 39.207 62.7292 39.3815 62.8125 39.4961C62.8984 39.6107 63.0404 39.668 63.2383 39.668C63.3164 39.668 63.4427 39.6549 63.6172 39.6289L63.6367 40.0117C63.5143 40.056 63.3477 40.0781 63.1367 40.0781C62.8164 40.0781 62.5833 39.9857 62.4375 39.8008C62.2917 39.6133 62.2188 39.3385 62.2188 38.9766V36.1562H61.4414V35.7734H62.2188V34.6914H62.6875ZM64.9961 36.4883C65.1497 36.2357 65.3464 36.0404 65.5859 35.9023C65.8255 35.7643 66.0872 35.6953 66.3711 35.6953C66.8242 35.6953 67.1615 35.8229 67.3828 36.0781C67.6042 36.3333 67.7161 36.7161 67.7188 37.2266V40H67.2539V37.2227C67.2513 36.8451 67.1706 36.5638 67.0117 36.3789C66.8555 36.194 66.6042 36.1016 66.2578 36.1016C65.9688 36.1016 65.7122 36.1927 65.4883 36.375C65.2669 36.5547 65.1029 36.7982 64.9961 37.1055V40H64.5312V34H64.9961V36.4883ZM71.5938 34.6914V35.7734H72.4688V36.1562H71.5938V38.9727C71.5938 39.207 71.6354 39.3815 71.7188 39.4961C71.8047 39.6107 71.9466 39.668 72.1445 39.668C72.2227 39.668 72.349 39.6549 72.5234 39.6289L72.543 40.0117C72.4206 40.056 72.2539 40.0781 72.043 40.0781C71.7227 40.0781 71.4896 39.9857 71.3438 39.8008C71.1979 39.6133 71.125 39.3385 71.125 38.9766V36.1562H70.3477V35.7734H71.125V34.6914H71.5938ZM73.9023 36.4883C74.056 36.2357 74.2526 36.0404 74.4922 35.9023C74.7318 35.7643 74.9935 35.6953 75.2773 35.6953C75.7305 35.6953 76.0677 35.8229 76.2891 36.0781C76.5104 36.3333 76.6224 36.7161 76.625 37.2266V40H76.1602V37.2227C76.1576 36.8451 76.0768 36.5638 75.918 36.3789C75.7617 36.194 75.5104 36.1016 75.1641 36.1016C74.875 36.1016 74.6185 36.1927 74.3945 36.375C74.1732 36.5547 74.0091 36.7982 73.9023 37.1055V40H73.4375V34H73.9023V36.4883ZM78.3516 40H77.8828V35.7734H78.3516V40ZM77.8008 34.5508C77.8008 34.4622 77.8294 34.388 77.8867 34.3281C77.944 34.2656 78.0221 34.2344 78.1211 34.2344C78.2201 34.2344 78.2982 34.2656 78.3555 34.3281C78.4154 34.388 78.4453 34.4622 78.4453 34.5508C78.4453 34.6393 78.4154 34.7135 78.3555 34.7734C78.2982 34.8333 78.2201 34.8633 78.1211 34.8633C78.0221 34.8633 77.944 34.8333 77.8867 34.7734C77.8294 34.7135 77.8008 34.6393 77.8008 34.5508ZM82.1562 38.9258C82.1562 38.694 82.0625 38.5078 81.875 38.3672C81.6901 38.2266 81.4102 38.1172 81.0352 38.0391C80.6602 37.9583 80.3685 37.8672 80.1602 37.7656C79.9544 37.6615 79.8008 37.5352 79.6992 37.3867C79.6003 37.2383 79.5508 37.0586 79.5508 36.8477C79.5508 36.5143 79.6901 36.2396 79.9688 36.0234C80.2474 35.8047 80.6042 35.6953 81.0391 35.6953C81.5104 35.6953 81.888 35.8125 82.1719 36.0469C82.4583 36.2786 82.6016 36.582 82.6016 36.957H82.1328C82.1328 36.7096 82.0286 36.5039 81.8203 36.3398C81.6146 36.1758 81.3542 36.0938 81.0391 36.0938C80.7318 36.0938 80.4844 36.1628 80.2969 36.3008C80.112 36.4362 80.0195 36.6133 80.0195 36.832C80.0195 37.043 80.0964 37.207 80.25 37.3242C80.4062 37.4388 80.6888 37.5443 81.0977 37.6406C81.5091 37.737 81.8164 37.8398 82.0195 37.9492C82.2253 38.0586 82.3776 38.1901 82.4766 38.3438C82.5755 38.4974 82.625 38.6836 82.625 38.9023C82.625 39.2591 82.4805 39.5443 82.1914 39.7578C81.9049 39.9714 81.5299 40.0781 81.0664 40.0781C80.5742 40.0781 80.1745 39.9596 79.8672 39.7227C79.5625 39.4831 79.4102 39.181 79.4102 38.8164H79.8789C79.8971 39.0898 80.0117 39.3034 80.2227 39.457C80.4362 39.6081 80.7174 39.6836 81.0664 39.6836C81.3919 39.6836 81.6549 39.612 81.8555 39.4688C82.056 39.3255 82.1562 39.1445 82.1562 38.9258ZM86.3516 34.6914V35.7734H87.2266V36.1562H86.3516V38.9727C86.3516 39.207 86.3932 39.3815 86.4766 39.4961C86.5625 39.6107 86.7044 39.668 86.9023 39.668C86.9805 39.668 87.1068 39.6549 87.2812 39.6289L87.3008 40.0117C87.1784 40.056 87.0117 40.0781 86.8008 40.0781C86.4805 40.0781 86.2474 39.9857 86.1016 39.8008C85.9557 39.6133 85.8828 39.3385 85.8828 38.9766V36.1562H85.1055V35.7734H85.8828V34.6914H86.3516ZM88.7188 40H88.25V35.7734H88.7188V40ZM88.168 34.5508C88.168 34.4622 88.1966 34.388 88.2539 34.3281C88.3112 34.2656 88.3893 34.2344 88.4883 34.2344C88.5872 34.2344 88.6654 34.2656 88.7227 34.3281C88.7826 34.388 88.8125 34.4622 88.8125 34.5508C88.8125 34.6393 88.7826 34.7135 88.7227 34.7734C88.6654 34.8333 88.5872 34.8633 88.4883 34.8633C88.3893 34.8633 88.3112 34.8333 88.2539 34.7734C88.1966 34.7135 88.168 34.6393 88.168 34.5508ZM91.5547 39.6836C91.8802 39.6836 92.1523 39.5924 92.3711 39.4102C92.5924 39.2253 92.7122 38.987 92.7305 38.6953H93.1797C93.1667 38.9531 93.0859 39.1888 92.9375 39.4023C92.7891 39.6133 92.5911 39.7786 92.3438 39.8984C92.099 40.0182 91.8359 40.0781 91.5547 40.0781C91 40.0781 90.5599 39.8854 90.2344 39.5C89.9115 39.1146 89.75 38.5964 89.75 37.9453V37.8047C89.75 37.388 89.8229 37.0195 89.9688 36.6992C90.1146 36.3789 90.3229 36.1315 90.5938 35.957C90.8672 35.7826 91.1862 35.6953 91.5508 35.6953C92.0143 35.6953 92.3958 35.8333 92.6953 36.1094C92.9974 36.3854 93.1589 36.7487 93.1797 37.1992H92.7305C92.7096 36.8685 92.5898 36.6016 92.3711 36.3984C92.1549 36.1953 91.8815 36.0938 91.5508 36.0938C91.1289 36.0938 90.8008 36.2461 90.5664 36.5508C90.3346 36.8555 90.2188 37.2826 90.2188 37.832V37.9688C90.2188 38.5078 90.3346 38.9284 90.5664 39.2305C90.8008 39.5326 91.1302 39.6836 91.5547 39.6836ZM95.1211 37.8711L94.5859 38.3867V40H94.1172V34H94.5859V37.8398L95.0273 37.3633L96.6445 35.7734H97.2344L95.4414 37.5547L97.3906 40H96.832L95.1211 37.8711ZM99.5977 40.0781C99.2383 40.0781 98.9128 39.9896 98.6211 39.8125C98.332 39.6354 98.1068 39.3893 97.9453 39.0742C97.7839 38.7565 97.7031 38.401 97.7031 38.0078V37.8398C97.7031 37.4336 97.7812 37.0677 97.9375 36.7422C98.0964 36.4167 98.3164 36.1615 98.5977 35.9766C98.8789 35.7891 99.1836 35.6953 99.5117 35.6953C100.025 35.6953 100.431 35.8711 100.73 36.2227C101.033 36.5716 101.184 37.0495 101.184 37.6562V37.918H98.168V38.0078C98.168 38.487 98.3047 38.8867 98.5781 39.207C98.8542 39.5247 99.2005 39.6836 99.6172 39.6836C99.8672 39.6836 100.087 39.638 100.277 39.5469C100.47 39.4557 100.645 39.3099 100.801 39.1094L101.094 39.332C100.75 39.8294 100.251 40.0781 99.5977 40.0781ZM99.5117 36.0938C99.1602 36.0938 98.8633 36.2227 98.6211 36.4805C98.3815 36.7383 98.2357 37.0846 98.1836 37.5195H100.719V37.4688C100.706 37.0625 100.59 36.7318 100.371 36.4766C100.152 36.2214 99.8659 36.0938 99.5117 36.0938ZM102.82 34.6914V35.7734H103.695V36.1562H102.82V38.9727C102.82 39.207 102.862 39.3815 102.945 39.4961C103.031 39.6107 103.173 39.668 103.371 39.668C103.449 39.668 103.576 39.6549 103.75 39.6289L103.77 40.0117C103.647 40.056 103.48 40.0781 103.27 40.0781C102.949 40.0781 102.716 39.9857 102.57 39.8008C102.424 39.6133 102.352 39.3385 102.352 38.9766V36.1562H101.574V35.7734H102.352V34.6914H102.82ZM105.164 38.418H104.73L104.707 34.3125H105.191L105.164 38.418ZM104.652 39.7266C104.652 39.638 104.681 39.5638 104.738 39.5039C104.796 39.4414 104.874 39.4102 104.973 39.4102C105.072 39.4102 105.15 39.4414 105.207 39.5039C105.267 39.5638 105.297 39.638 105.297 39.7266C105.297 39.8125 105.267 39.8854 105.207 39.9453C105.15 40.0026 105.072 40.0312 104.973 40.0312C104.874 40.0312 104.796 40.0026 104.738 39.9453C104.681 39.8854 104.652 39.8125 104.652 39.7266ZM21.3047 58H20.8242V52.3125H21.3047V58ZM23.1875 53.7734L23.2031 54.4961C23.362 54.2357 23.5599 54.0378 23.7969 53.9023C24.0339 53.7643 24.2956 53.6953 24.582 53.6953C25.0352 53.6953 25.3724 53.8229 25.5938 54.0781C25.8151 54.3333 25.9271 54.7161 25.9297 55.2266V58H25.4648V55.2227C25.4622 54.8451 25.3815 54.5638 25.2227 54.3789C25.0664 54.194 24.8151 54.1016 24.4688 54.1016C24.1797 54.1016 23.9232 54.1927 23.6992 54.375C23.4779 54.5547 23.3138 54.7982 23.207 55.1055V58H22.7422V53.7734H23.1875ZM27.8672 52.6914V53.7734H28.7422V54.1562H27.8672V56.9727C27.8672 57.207 27.9089 57.3815 27.9922 57.4961C28.0781 57.6107 28.2201 57.668 28.418 57.668C28.4961 57.668 28.6224 57.6549 28.7969 57.6289L28.8164 58.0117C28.694 58.056 28.5273 58.0781 28.3164 58.0781C27.9961 58.0781 27.763 57.9857 27.6172 57.8008C27.4714 57.6133 27.3984 57.3385 27.3984 56.9766V54.1562H26.6211V53.7734H27.3984V52.6914H27.8672ZM31.3477 58.0781C30.9883 58.0781 30.6628 57.9896 30.3711 57.8125C30.082 57.6354 29.8568 57.3893 29.6953 57.0742C29.5339 56.7565 29.4531 56.401 29.4531 56.0078V55.8398C29.4531 55.4336 29.5312 55.0677 29.6875 54.7422C29.8464 54.4167 30.0664 54.1615 30.3477 53.9766C30.6289 53.7891 30.9336 53.6953 31.2617 53.6953C31.7747 53.6953 32.181 53.8711 32.4805 54.2227C32.7826 54.5716 32.9336 55.0495 32.9336 55.6562V55.918H29.918V56.0078C29.918 56.487 30.0547 56.8867 30.3281 57.207C30.6042 57.5247 30.9505 57.6836 31.3672 57.6836C31.6172 57.6836 31.8372 57.638 32.0273 57.5469C32.2201 57.4557 32.3945 57.3099 32.5508 57.1094L32.8438 57.332C32.5 57.8294 32.0013 58.0781 31.3477 58.0781ZM31.2617 54.0938C30.9102 54.0938 30.6133 54.2227 30.3711 54.4805C30.1315 54.7383 29.9857 55.0846 29.9336 55.5195H32.4688V55.4688C32.4557 55.0625 32.3398 54.7318 32.1211 54.4766C31.9023 54.2214 31.6159 54.0938 31.2617 54.0938ZM33.6562 55.8477C33.6562 55.1862 33.8021 54.6628 34.0938 54.2773C34.388 53.8893 34.7865 53.6953 35.2891 53.6953C35.8646 53.6953 36.3021 53.9245 36.6016 54.3828L36.625 53.7734H37.0625V57.9141C37.0625 58.4583 36.9102 58.8893 36.6055 59.207C36.3008 59.5247 35.888 59.6836 35.3672 59.6836C35.0729 59.6836 34.7917 59.6172 34.5234 59.4844C34.2578 59.3542 34.0482 59.1797 33.8945 58.9609L34.1562 58.6797C34.487 59.0859 34.8802 59.2891 35.3359 59.2891C35.7266 59.2891 36.0312 59.1732 36.25 58.9414C36.4688 58.7122 36.582 58.3932 36.5898 57.9844V57.4531C36.2904 57.8698 35.8542 58.0781 35.2812 58.0781C34.7917 58.0781 34.3984 57.8828 34.1016 57.4922C33.8047 57.1016 33.6562 56.5742 33.6562 55.9102V55.8477ZM34.1289 55.9297C34.1289 56.4688 34.237 56.8945 34.4531 57.207C34.6693 57.5169 34.974 57.6719 35.3672 57.6719C35.9427 57.6719 36.3503 57.4141 36.5898 56.8984V54.9336C36.4805 54.6628 36.3229 54.457 36.1172 54.3164C35.9115 54.1732 35.6641 54.1016 35.375 54.1016C34.9818 54.1016 34.6758 54.2565 34.457 54.5664C34.2383 54.8737 34.1289 55.3281 34.1289 55.9297ZM40.2344 54.1719C40.1354 54.1536 40.0299 54.1445 39.918 54.1445C39.6263 54.1445 39.3789 54.2266 39.1758 54.3906C38.9753 54.5521 38.832 54.7878 38.7461 55.0977V58H38.2812V53.7734H38.7383L38.7461 54.4453C38.9935 53.9453 39.3906 53.6953 39.9375 53.6953C40.0677 53.6953 40.1706 53.7122 40.2461 53.7461L40.2344 54.1719ZM43.4883 58C43.4414 57.8672 43.4115 57.6706 43.3984 57.4102C43.2344 57.6237 43.0247 57.7891 42.7695 57.9062C42.5169 58.0208 42.2487 58.0781 41.9648 58.0781C41.5586 58.0781 41.2292 57.9648 40.9766 57.7383C40.7266 57.5117 40.6016 57.2253 40.6016 56.8789C40.6016 56.4674 40.7721 56.1419 41.1133 55.9023C41.457 55.6628 41.9349 55.543 42.5469 55.543H43.3945V55.0625C43.3945 54.7604 43.3008 54.5234 43.1133 54.3516C42.9284 54.1771 42.6576 54.0898 42.3008 54.0898C41.9753 54.0898 41.7057 54.1732 41.4922 54.3398C41.2786 54.5065 41.1719 54.707 41.1719 54.9414L40.7031 54.9375C40.7031 54.6016 40.8594 54.3112 41.1719 54.0664C41.4844 53.819 41.8685 53.6953 42.3242 53.6953C42.7956 53.6953 43.1667 53.8138 43.4375 54.0508C43.7109 54.2852 43.8516 54.6133 43.8594 55.0352V57.0352C43.8594 57.444 43.9023 57.75 43.9883 57.9531V58H43.4883ZM42.0195 57.6641C42.332 57.6641 42.6107 57.5885 42.8555 57.4375C43.1029 57.2865 43.2826 57.0846 43.3945 56.832V55.9023H42.5586C42.0924 55.9076 41.7279 55.9935 41.4648 56.1602C41.2018 56.3242 41.0703 56.5508 41.0703 56.8398C41.0703 57.0768 41.1576 57.2734 41.332 57.4297C41.5091 57.5859 41.7383 57.6641 42.0195 57.6641ZM45.8359 52.6914V53.7734H46.7109V54.1562H45.8359V56.9727C45.8359 57.207 45.8776 57.3815 45.9609 57.4961C46.0469 57.6107 46.1888 57.668 46.3867 57.668C46.4648 57.668 46.5911 57.6549 46.7656 57.6289L46.7852 58.0117C46.6628 58.056 46.4961 58.0781 46.2852 58.0781C45.9648 58.0781 45.7318 57.9857 45.5859 57.8008C45.4401 57.6133 45.3672 57.3385 45.3672 56.9766V54.1562H44.5898V53.7734H45.3672V52.6914H45.8359ZM49.3164 58.0781C48.957 58.0781 48.6315 57.9896 48.3398 57.8125C48.0508 57.6354 47.8255 57.3893 47.6641 57.0742C47.5026 56.7565 47.4219 56.401 47.4219 56.0078V55.8398C47.4219 55.4336 47.5 55.0677 47.6562 54.7422C47.8151 54.4167 48.0352 54.1615 48.3164 53.9766C48.5977 53.7891 48.9023 53.6953 49.2305 53.6953C49.7435 53.6953 50.1497 53.8711 50.4492 54.2227C50.7513 54.5716 50.9023 55.0495 50.9023 55.6562V55.918H47.8867V56.0078C47.8867 56.487 48.0234 56.8867 48.2969 57.207C48.5729 57.5247 48.9193 57.6836 49.3359 57.6836C49.5859 57.6836 49.806 57.638 49.9961 57.5469C50.1888 57.4557 50.3633 57.3099 50.5195 57.1094L50.8125 57.332C50.4688 57.8294 49.9701 58.0781 49.3164 58.0781ZM49.2305 54.0938C48.8789 54.0938 48.582 54.2227 48.3398 54.4805C48.1003 54.7383 47.9544 55.0846 47.9023 55.5195H50.4375V55.4688C50.4245 55.0625 50.3086 54.7318 50.0898 54.4766C49.8711 54.2214 49.5846 54.0938 49.2305 54.0938ZM57.0859 56.6016C57.0859 56.2865 56.9753 56.0378 56.7539 55.8555C56.5326 55.6706 56.1276 55.4961 55.5391 55.332C54.9505 55.1654 54.5208 54.9844 54.25 54.7891C53.8646 54.513 53.6719 54.151 53.6719 53.7031C53.6719 53.2682 53.8503 52.9154 54.207 52.6445C54.5664 52.3711 55.0247 52.2344 55.582 52.2344C55.9596 52.2344 56.2969 52.3073 56.5938 52.4531C56.8932 52.599 57.125 52.8021 57.2891 53.0625C57.4531 53.3229 57.5352 53.6133 57.5352 53.9336H57.0508C57.0508 53.5456 56.918 53.2344 56.6523 53C56.3867 52.763 56.0299 52.6445 55.582 52.6445C55.1471 52.6445 54.8008 52.7422 54.543 52.9375C54.2852 53.1302 54.1562 53.3828 54.1562 53.6953C54.1562 53.9844 54.2721 54.2201 54.5039 54.4023C54.7357 54.5846 55.1068 54.7461 55.6172 54.8867C56.1276 55.0247 56.5143 55.1693 56.7773 55.3203C57.0404 55.4688 57.2383 55.6471 57.3711 55.8555C57.5039 56.0638 57.5703 56.3099 57.5703 56.5938C57.5703 57.0417 57.3906 57.401 57.0312 57.6719C56.6745 57.9427 56.2031 58.0781 55.6172 58.0781C55.2161 58.0781 54.8477 58.0065 54.5117 57.8633C54.1784 57.7201 53.9245 57.5195 53.75 57.2617C53.5781 57.0039 53.4922 56.7083 53.4922 56.375H53.9727C53.9727 56.776 54.1224 57.0924 54.4219 57.3242C54.7214 57.556 55.1198 57.6719 55.6172 57.6719C56.0599 57.6719 56.4154 57.5742 56.6836 57.3789C56.9518 57.1836 57.0859 56.9245 57.0859 56.6016ZM60.1367 58.0781C59.7773 58.0781 59.4518 57.9896 59.1602 57.8125C58.8711 57.6354 58.6458 57.3893 58.4844 57.0742C58.3229 56.7565 58.2422 56.401 58.2422 56.0078V55.8398C58.2422 55.4336 58.3203 55.0677 58.4766 54.7422C58.6354 54.4167 58.8555 54.1615 59.1367 53.9766C59.418 53.7891 59.7227 53.6953 60.0508 53.6953C60.5638 53.6953 60.9701 53.8711 61.2695 54.2227C61.5716 54.5716 61.7227 55.0495 61.7227 55.6562V55.918H58.707V56.0078C58.707 56.487 58.8438 56.8867 59.1172 57.207C59.3932 57.5247 59.7396 57.6836 60.1562 57.6836C60.4062 57.6836 60.6263 57.638 60.8164 57.5469C61.0091 57.4557 61.1836 57.3099 61.3398 57.1094L61.6328 57.332C61.2891 57.8294 60.7904 58.0781 60.1367 58.0781ZM60.0508 54.0938C59.6992 54.0938 59.4023 54.2227 59.1602 54.4805C58.9206 54.7383 58.7747 55.0846 58.7227 55.5195H61.2578V55.4688C61.2448 55.0625 61.1289 54.7318 60.9102 54.4766C60.6914 54.2214 60.4049 54.0938 60.0508 54.0938ZM63.0781 53.7734L63.0938 54.4961C63.2526 54.2357 63.4505 54.0378 63.6875 53.9023C63.9245 53.7643 64.1862 53.6953 64.4727 53.6953C64.9258 53.6953 65.263 53.8229 65.4844 54.0781C65.7057 54.3333 65.8177 54.7161 65.8203 55.2266V58H65.3555V55.2227C65.3529 54.8451 65.2721 54.5638 65.1133 54.3789C64.957 54.194 64.7057 54.1016 64.3594 54.1016C64.0703 54.1016 63.8138 54.1927 63.5898 54.375C63.3685 54.5547 63.2044 54.7982 63.0977 55.1055V58H62.6328V53.7734H63.0781ZM66.8438 55.8477C66.8438 55.1914 66.9896 54.6693 67.2812 54.2812C67.5755 53.8906 67.974 53.6953 68.4766 53.6953C69.0469 53.6953 69.4818 53.9206 69.7812 54.3711V52H70.2461V58H69.8086L69.7891 57.4375C69.4896 57.8646 69.0495 58.0781 68.4688 58.0781C67.9818 58.0781 67.5885 57.8828 67.2891 57.4922C66.9922 57.099 66.8438 56.569 66.8438 55.9023V55.8477ZM67.3164 55.9297C67.3164 56.4688 67.4245 56.8945 67.6406 57.207C67.8568 57.5169 68.1615 57.6719 68.5547 57.6719C69.1302 57.6719 69.5391 57.418 69.7812 56.9102V54.9258C69.5391 54.3763 69.1328 54.1016 68.5625 54.1016C68.1693 54.1016 67.8633 54.2565 67.6445 54.5664C67.4258 54.8737 67.3164 55.3281 67.3164 55.9297ZM75.6914 57.3242C75.5247 57.5612 75.263 57.7461 74.9062 57.8789C74.5521 58.0117 74.1549 58.0781 73.7148 58.0781C73.2695 58.0781 72.8737 57.9714 72.5273 57.7578C72.181 57.5443 71.9128 57.2422 71.7227 56.8516C71.5326 56.4609 71.4362 56.013 71.4336 55.5078V54.7891C71.4336 54 71.6328 53.3776 72.0312 52.9219C72.4297 52.4635 72.9648 52.2344 73.6367 52.2344C74.2227 52.2344 74.694 52.3841 75.0508 52.6836C75.4076 52.9805 75.6198 53.3906 75.6875 53.9141H75.207C75.1367 53.4974 74.9661 53.1823 74.6953 52.9688C74.4271 52.7526 74.0755 52.6445 73.6406 52.6445C73.1094 52.6445 72.6888 52.8333 72.3789 53.2109C72.069 53.5885 71.9141 54.1211 71.9141 54.8086V55.4805C71.9141 55.9128 71.987 56.2956 72.1328 56.6289C72.2812 56.9596 72.4922 57.2161 72.7656 57.3984C73.0417 57.5807 73.3581 57.6719 73.7148 57.6719C74.1289 57.6719 74.4844 57.6068 74.7812 57.4766C74.974 57.3906 75.1172 57.2904 75.2109 57.1758V55.707H73.6836V55.3008H75.6914V57.3242ZM78.8984 54.1719C78.7995 54.1536 78.694 54.1445 78.582 54.1445C78.2904 54.1445 78.043 54.2266 77.8398 54.3906C77.6393 54.5521 77.4961 54.7878 77.4102 55.0977V58H76.9453V53.7734H77.4023L77.4102 54.4453C77.6576 53.9453 78.0547 53.6953 78.6016 53.6953C78.7318 53.6953 78.8346 53.7122 78.9102 53.7461L78.8984 54.1719ZM80.1641 58H79.6953V53.7734H80.1641V58ZM79.6133 52.5508C79.6133 52.4622 79.6419 52.388 79.6992 52.3281C79.7565 52.2656 79.8346 52.2344 79.9336 52.2344C80.0326 52.2344 80.1107 52.2656 80.168 52.3281C80.2279 52.388 80.2578 52.4622 80.2578 52.5508C80.2578 52.6393 80.2279 52.7135 80.168 52.7734C80.1107 52.8333 80.0326 52.8633 79.9336 52.8633C79.8346 52.8633 79.7565 52.8333 79.6992 52.7734C79.6419 52.7135 79.6133 52.6393 79.6133 52.5508ZM81.25 55.8477C81.25 55.1914 81.3958 54.6693 81.6875 54.2812C81.9818 53.8906 82.3802 53.6953 82.8828 53.6953C83.4531 53.6953 83.888 53.9206 84.1875 54.3711V52H84.6523V58H84.2148L84.1953 57.4375C83.8958 57.8646 83.4557 58.0781 82.875 58.0781C82.388 58.0781 81.9948 57.8828 81.6953 57.4922C81.3984 57.099 81.25 56.569 81.25 55.9023V55.8477ZM81.7227 55.9297C81.7227 56.4688 81.8307 56.8945 82.0469 57.207C82.263 57.5169 82.5677 57.6719 82.9609 57.6719C83.5365 57.6719 83.9453 57.418 84.1875 56.9102V54.9258C83.9453 54.3763 83.5391 54.1016 82.9688 54.1016C82.5755 54.1016 82.2695 54.2565 82.0508 54.5664C81.832 54.8737 81.7227 55.3281 81.7227 55.9297ZM91.0078 56.4062H88.4258L87.8398 58H87.3359L89.4883 52.3125H89.9453L92.0977 58H91.5977L91.0078 56.4062ZM88.5742 55.9961H90.8555L89.7148 52.8984L88.5742 55.9961ZM93.418 55.6836V58H92.9375V52.3125H94.875C95.4661 52.3125 95.9323 52.4635 96.2734 52.7656C96.6172 53.0677 96.7891 53.4831 96.7891 54.0117C96.7891 54.5456 96.6237 54.9583 96.293 55.25C95.9648 55.5391 95.4883 55.6836 94.8633 55.6836H93.418ZM93.418 55.2773H94.875C95.3411 55.2773 95.6966 55.1667 95.9414 54.9453C96.1862 54.724 96.3086 54.4154 96.3086 54.0195C96.3086 53.6263 96.1862 53.3138 95.9414 53.082C95.6992 52.8477 95.3542 52.7279 94.9062 52.7227H93.418V55.2773ZM98.4531 58H97.9727V52.3125H98.4531V58ZM102.848 57.0273L102.918 57.3906L103.012 57.0078L104.027 53.7734H104.426L105.43 56.9805L105.539 57.4258L105.629 57.0156L106.496 53.7734H106.98L105.75 58H105.352L104.266 54.6484L104.215 54.418L104.164 54.6523L103.098 58H102.699L101.473 53.7734H101.953L102.848 57.0273ZM108.391 58H107.922V53.7734H108.391V58ZM107.84 52.5508C107.84 52.4622 107.868 52.388 107.926 52.3281C107.983 52.2656 108.061 52.2344 108.16 52.2344C108.259 52.2344 108.337 52.2656 108.395 52.3281C108.454 52.388 108.484 52.4622 108.484 52.5508C108.484 52.6393 108.454 52.7135 108.395 52.7734C108.337 52.8333 108.259 52.8633 108.16 52.8633C108.061 52.8633 107.983 52.8333 107.926 52.7734C107.868 52.7135 107.84 52.6393 107.84 52.5508ZM110.391 52.6914V53.7734H111.266V54.1562H110.391V56.9727C110.391 57.207 110.432 57.3815 110.516 57.4961C110.602 57.6107 110.743 57.668 110.941 57.668C111.02 57.668 111.146 57.6549 111.32 57.6289L111.34 58.0117C111.217 58.056 111.051 58.0781 110.84 58.0781C110.52 58.0781 110.286 57.9857 110.141 57.8008C109.995 57.6133 109.922 57.3385 109.922 56.9766V54.1562H109.145V53.7734H109.922V52.6914H110.391ZM112.699 54.4883C112.853 54.2357 113.049 54.0404 113.289 53.9023C113.529 53.7643 113.79 53.6953 114.074 53.6953C114.527 53.6953 114.865 53.8229 115.086 54.0781C115.307 54.3333 115.419 54.7161 115.422 55.2266V58H114.957V55.2227C114.954 54.8451 114.874 54.5638 114.715 54.3789C114.559 54.194 114.307 54.1016 113.961 54.1016C113.672 54.1016 113.415 54.1927 113.191 54.375C112.97 54.5547 112.806 54.7982 112.699 55.1055V58H112.234V52H112.699V54.4883ZM119.297 52.6914V53.7734H120.172V54.1562H119.297V56.9727C119.297 57.207 119.339 57.3815 119.422 57.4961C119.508 57.6107 119.65 57.668 119.848 57.668C119.926 57.668 120.052 57.6549 120.227 57.6289L120.246 58.0117C120.124 58.056 119.957 58.0781 119.746 58.0781C119.426 58.0781 119.193 57.9857 119.047 57.8008C118.901 57.6133 118.828 57.3385 118.828 56.9766V54.1562H118.051V53.7734H118.828V52.6914H119.297ZM121.605 54.4883C121.759 54.2357 121.956 54.0404 122.195 53.9023C122.435 53.7643 122.697 53.6953 122.98 53.6953C123.434 53.6953 123.771 53.8229 123.992 54.0781C124.214 54.3333 124.326 54.7161 124.328 55.2266V58H123.863V55.2227C123.861 54.8451 123.78 54.5638 123.621 54.3789C123.465 54.194 123.214 54.1016 122.867 54.1016C122.578 54.1016 122.322 54.1927 122.098 54.375C121.876 54.5547 121.712 54.7982 121.605 55.1055V58H121.141V52H121.605V54.4883ZM127.168 58.0781C126.809 58.0781 126.483 57.9896 126.191 57.8125C125.902 57.6354 125.677 57.3893 125.516 57.0742C125.354 56.7565 125.273 56.401 125.273 56.0078V55.8398C125.273 55.4336 125.352 55.0677 125.508 54.7422C125.667 54.4167 125.887 54.1615 126.168 53.9766C126.449 53.7891 126.754 53.6953 127.082 53.6953C127.595 53.6953 128.001 53.8711 128.301 54.2227C128.603 54.5716 128.754 55.0495 128.754 55.6562V55.918H125.738V56.0078C125.738 56.487 125.875 56.8867 126.148 57.207C126.424 57.5247 126.771 57.6836 127.188 57.6836C127.438 57.6836 127.658 57.638 127.848 57.5469C128.04 57.4557 128.215 57.3099 128.371 57.1094L128.664 57.332C128.32 57.8294 127.822 58.0781 127.168 58.0781ZM127.082 54.0938C126.73 54.0938 126.434 54.2227 126.191 54.4805C125.952 54.7383 125.806 55.0846 125.754 55.5195H128.289V55.4688C128.276 55.0625 128.16 54.7318 127.941 54.4766C127.723 54.2214 127.436 54.0938 127.082 54.0938ZM133.172 57.6836C133.497 57.6836 133.77 57.5924 133.988 57.4102C134.21 57.2253 134.329 56.987 134.348 56.6953H134.797C134.784 56.9531 134.703 57.1888 134.555 57.4023C134.406 57.6133 134.208 57.7786 133.961 57.8984C133.716 58.0182 133.453 58.0781 133.172 58.0781C132.617 58.0781 132.177 57.8854 131.852 57.5C131.529 57.1146 131.367 56.5964 131.367 55.9453V55.8047C131.367 55.388 131.44 55.0195 131.586 54.6992C131.732 54.3789 131.94 54.1315 132.211 53.957C132.484 53.7826 132.803 53.6953 133.168 53.6953C133.632 53.6953 134.013 53.8333 134.312 54.1094C134.615 54.3854 134.776 54.7487 134.797 55.1992H134.348C134.327 54.8685 134.207 54.6016 133.988 54.3984C133.772 54.1953 133.499 54.0938 133.168 54.0938C132.746 54.0938 132.418 54.2461 132.184 54.5508C131.952 54.8555 131.836 55.2826 131.836 55.832V55.9688C131.836 56.5078 131.952 56.9284 132.184 57.2305C132.418 57.5326 132.747 57.6836 133.172 57.6836ZM138.453 57.4648C138.172 57.8737 137.723 58.0781 137.105 58.0781C136.655 58.0781 136.312 57.9479 136.078 57.6875C135.844 57.4245 135.724 57.0365 135.719 56.5234V53.7734H136.184V56.4648C136.184 57.2695 136.509 57.6719 137.16 57.6719C137.837 57.6719 138.266 57.3919 138.445 56.832V53.7734H138.914V58H138.461L138.453 57.4648ZM142.086 54.1719C141.987 54.1536 141.882 54.1445 141.77 54.1445C141.478 54.1445 141.23 54.2266 141.027 54.3906C140.827 54.5521 140.684 54.7878 140.598 55.0977V58H140.133V53.7734H140.59L140.598 54.4453C140.845 53.9453 141.242 53.6953 141.789 53.6953C141.919 53.6953 142.022 53.7122 142.098 53.7461L142.086 54.1719ZM144.781 54.1719C144.682 54.1536 144.577 54.1445 144.465 54.1445C144.173 54.1445 143.926 54.2266 143.723 54.3906C143.522 54.5521 143.379 54.7878 143.293 55.0977V58H142.828V53.7734H143.285L143.293 54.4453C143.54 53.9453 143.938 53.6953 144.484 53.6953C144.615 53.6953 144.717 53.7122 144.793 53.7461L144.781 54.1719ZM147.082 58.0781C146.723 58.0781 146.397 57.9896 146.105 57.8125C145.816 57.6354 145.591 57.3893 145.43 57.0742C145.268 56.7565 145.188 56.401 145.188 56.0078V55.8398C145.188 55.4336 145.266 55.0677 145.422 54.7422C145.581 54.4167 145.801 54.1615 146.082 53.9766C146.363 53.7891 146.668 53.6953 146.996 53.6953C147.509 53.6953 147.915 53.8711 148.215 54.2227C148.517 54.5716 148.668 55.0495 148.668 55.6562V55.918H145.652V56.0078C145.652 56.487 145.789 56.8867 146.062 57.207C146.339 57.5247 146.685 57.6836 147.102 57.6836C147.352 57.6836 147.572 57.638 147.762 57.5469C147.954 57.4557 148.129 57.3099 148.285 57.1094L148.578 57.332C148.234 57.8294 147.736 58.0781 147.082 58.0781ZM146.996 54.0938C146.645 54.0938 146.348 54.2227 146.105 54.4805C145.866 54.7383 145.72 55.0846 145.668 55.5195H148.203V55.4688C148.19 55.0625 148.074 54.7318 147.855 54.4766C147.637 54.2214 147.35 54.0938 146.996 54.0938ZM150.023 53.7734L150.039 54.4961C150.198 54.2357 150.396 54.0378 150.633 53.9023C150.87 53.7643 151.132 53.6953 151.418 53.6953C151.871 53.6953 152.208 53.8229 152.43 54.0781C152.651 54.3333 152.763 54.7161 152.766 55.2266V58H152.301V55.2227C152.298 54.8451 152.217 54.5638 152.059 54.3789C151.902 54.194 151.651 54.1016 151.305 54.1016C151.016 54.1016 150.759 54.1927 150.535 54.375C150.314 54.5547 150.15 54.7982 150.043 55.1055V58H149.578V53.7734H150.023ZM154.703 52.6914V53.7734H155.578V54.1562H154.703V56.9727C154.703 57.207 154.745 57.3815 154.828 57.4961C154.914 57.6107 155.056 57.668 155.254 57.668C155.332 57.668 155.458 57.6549 155.633 57.6289L155.652 58.0117C155.53 58.056 155.363 58.0781 155.152 58.0781C154.832 58.0781 154.599 57.9857 154.453 57.8008C154.307 57.6133 154.234 57.3385 154.234 56.9766V54.1562H153.457V53.7734H154.234V52.6914H154.703ZM158.602 58V52.3125H160.281C160.891 52.3125 161.353 52.4388 161.668 52.6914C161.983 52.9414 162.141 53.3112 162.141 53.8008C162.141 54.0951 162.06 54.3516 161.898 54.5703C161.74 54.7865 161.521 54.9414 161.242 55.0352C161.573 55.1081 161.839 55.2708 162.039 55.5234C162.242 55.776 162.344 56.0677 162.344 56.3984C162.344 56.901 162.181 57.2943 161.855 57.5781C161.533 57.8594 161.082 58 160.504 58H158.602ZM159.082 55.2656V57.5938H160.523C160.935 57.5938 161.26 57.4896 161.5 57.2812C161.742 57.0703 161.863 56.7786 161.863 56.4062C161.863 56.0547 161.747 55.7773 161.516 55.5742C161.286 55.3685 160.969 55.2656 160.562 55.2656H159.082ZM159.082 54.8633H160.395C160.796 54.8555 161.105 54.7617 161.324 54.582C161.546 54.3997 161.656 54.1354 161.656 53.7891C161.656 53.4245 161.542 53.1562 161.312 52.9844C161.086 52.8099 160.742 52.7227 160.281 52.7227H159.082V54.8633ZM166.066 58C166.02 57.8672 165.99 57.6706 165.977 57.4102C165.812 57.6237 165.603 57.7891 165.348 57.9062C165.095 58.0208 164.827 58.0781 164.543 58.0781C164.137 58.0781 163.807 57.9648 163.555 57.7383C163.305 57.5117 163.18 57.2253 163.18 56.8789C163.18 56.4674 163.35 56.1419 163.691 55.9023C164.035 55.6628 164.513 55.543 165.125 55.543H165.973V55.0625C165.973 54.7604 165.879 54.5234 165.691 54.3516C165.507 54.1771 165.236 54.0898 164.879 54.0898C164.553 54.0898 164.284 54.1732 164.07 54.3398C163.857 54.5065 163.75 54.707 163.75 54.9414L163.281 54.9375C163.281 54.6016 163.438 54.3112 163.75 54.0664C164.062 53.819 164.447 53.6953 164.902 53.6953C165.374 53.6953 165.745 53.8138 166.016 54.0508C166.289 54.2852 166.43 54.6133 166.438 55.0352V57.0352C166.438 57.444 166.48 57.75 166.566 57.9531V58H166.066ZM164.598 57.6641C164.91 57.6641 165.189 57.5885 165.434 57.4375C165.681 57.2865 165.861 57.0846 165.973 56.832V55.9023H165.137C164.671 55.9076 164.306 55.9935 164.043 56.1602C163.78 56.3242 163.648 56.5508 163.648 56.8398C163.648 57.0768 163.736 57.2734 163.91 57.4297C164.087 57.5859 164.316 57.6641 164.598 57.6641ZM169.25 57.6836C169.576 57.6836 169.848 57.5924 170.066 57.4102C170.288 57.2253 170.408 56.987 170.426 56.6953H170.875C170.862 56.9531 170.781 57.1888 170.633 57.4023C170.484 57.6133 170.286 57.7786 170.039 57.8984C169.794 58.0182 169.531 58.0781 169.25 58.0781C168.695 58.0781 168.255 57.8854 167.93 57.5C167.607 57.1146 167.445 56.5964 167.445 55.9453V55.8047C167.445 55.388 167.518 55.0195 167.664 54.6992C167.81 54.3789 168.018 54.1315 168.289 53.957C168.562 53.7826 168.882 53.6953 169.246 53.6953C169.71 53.6953 170.091 53.8333 170.391 54.1094C170.693 54.3854 170.854 54.7487 170.875 55.1992H170.426C170.405 54.8685 170.285 54.6016 170.066 54.3984C169.85 54.1953 169.577 54.0938 169.246 54.0938C168.824 54.0938 168.496 54.2461 168.262 54.5508C168.03 54.8555 167.914 55.2826 167.914 55.832V55.9688C167.914 56.5078 168.03 56.9284 168.262 57.2305C168.496 57.5326 168.826 57.6836 169.25 57.6836ZM172.816 55.8711L172.281 56.3867V58H171.812V52H172.281V55.8398L172.723 55.3633L174.34 53.7734H174.93L173.137 55.5547L175.086 58H174.527L172.816 55.8711ZM177.293 58.0781C176.934 58.0781 176.608 57.9896 176.316 57.8125C176.027 57.6354 175.802 57.3893 175.641 57.0742C175.479 56.7565 175.398 56.401 175.398 56.0078V55.8398C175.398 55.4336 175.477 55.0677 175.633 54.7422C175.792 54.4167 176.012 54.1615 176.293 53.9766C176.574 53.7891 176.879 53.6953 177.207 53.6953C177.72 53.6953 178.126 53.8711 178.426 54.2227C178.728 54.5716 178.879 55.0495 178.879 55.6562V55.918H175.863V56.0078C175.863 56.487 176 56.8867 176.273 57.207C176.549 57.5247 176.896 57.6836 177.312 57.6836C177.562 57.6836 177.783 57.638 177.973 57.5469C178.165 57.4557 178.34 57.3099 178.496 57.1094L178.789 57.332C178.445 57.8294 177.947 58.0781 177.293 58.0781ZM177.207 54.0938C176.855 54.0938 176.559 54.2227 176.316 54.4805C176.077 54.7383 175.931 55.0846 175.879 55.5195H178.414V55.4688C178.401 55.0625 178.285 54.7318 178.066 54.4766C177.848 54.2214 177.561 54.0938 177.207 54.0938ZM180.234 53.7734L180.25 54.4961C180.409 54.2357 180.607 54.0378 180.844 53.9023C181.081 53.7643 181.342 53.6953 181.629 53.6953C182.082 53.6953 182.419 53.8229 182.641 54.0781C182.862 54.3333 182.974 54.7161 182.977 55.2266V58H182.512V55.2227C182.509 54.8451 182.428 54.5638 182.27 54.3789C182.113 54.194 181.862 54.1016 181.516 54.1016C181.227 54.1016 180.97 54.1927 180.746 54.375C180.525 54.5547 180.361 54.7982 180.254 55.1055V58H179.789V53.7734H180.234ZM184 55.8477C184 55.1914 184.146 54.6693 184.438 54.2812C184.732 53.8906 185.13 53.6953 185.633 53.6953C186.203 53.6953 186.638 53.9206 186.938 54.3711V52H187.402V58H186.965L186.945 57.4375C186.646 57.8646 186.206 58.0781 185.625 58.0781C185.138 58.0781 184.745 57.8828 184.445 57.4922C184.148 57.099 184 56.569 184 55.9023V55.8477ZM184.473 55.9297C184.473 56.4688 184.581 56.8945 184.797 57.207C185.013 57.5169 185.318 57.6719 185.711 57.6719C186.286 57.6719 186.695 57.418 186.938 56.9102V54.9258C186.695 54.3763 186.289 54.1016 185.719 54.1016C185.326 54.1016 185.02 54.2565 184.801 54.5664C184.582 54.8737 184.473 55.3281 184.473 55.9297ZM188.59 57.7188C188.59 57.6276 188.618 57.5508 188.676 57.4883C188.736 57.4232 188.818 57.3906 188.922 57.3906C189.026 57.3906 189.108 57.4232 189.168 57.4883C189.228 57.5508 189.258 57.6276 189.258 57.7188C189.258 57.8099 189.228 57.8854 189.168 57.9453C189.108 58.0026 189.026 58.0312 188.922 58.0312C188.818 58.0312 188.736 58.0026 188.676 57.9453C188.618 57.8854 188.59 57.8099 188.59 57.7188Z" fill="white"/>
<circle cx="27.5" cy="80.5" r="7.5" fill="#FF5050"/>
<circle cx="47.5" cy="80.5" r="7.5" fill="#FFED47"/>
<circle cx="67.5" cy="80.5" r="7.5" fill="#B1FC12"/>
<path d="M88.4316 85H86.9551V76.4688H88.4316V85ZM91.4375 78.6602L91.4785 79.3926C91.9473 78.8262 92.5625 78.543 93.3242 78.543C94.6445 78.543 95.3164 79.2988 95.3398 80.8105V85H93.916V80.8926C93.916 80.4902 93.8281 80.1934 93.6523 80.002C93.4805 79.8066 93.1973 79.709 92.8027 79.709C92.2285 79.709 91.8008 79.9688 91.5195 80.4883V85H90.0957V78.6602H91.4375ZM98.5801 77.1191V78.6602H99.6992V79.7148H98.5801V83.2539C98.5801 83.4961 98.627 83.6719 98.7207 83.7812C98.8184 83.8867 98.9902 83.9395 99.2363 83.9395C99.4004 83.9395 99.5664 83.9199 99.7344 83.8809V84.9824C99.4102 85.0723 99.0977 85.1172 98.7969 85.1172C97.7031 85.1172 97.1562 84.5137 97.1562 83.3066V79.7148H96.1133V78.6602H97.1562V77.1191H98.5801ZM103.584 85.1172C102.682 85.1172 101.949 84.834 101.387 84.2676C100.828 83.6973 100.549 82.9395 100.549 81.9941V81.8184C100.549 81.1855 100.67 80.6211 100.912 80.125C101.158 79.625 101.502 79.2363 101.943 78.959C102.385 78.6816 102.877 78.543 103.42 78.543C104.283 78.543 104.949 78.8184 105.418 79.3691C105.891 79.9199 106.127 80.6992 106.127 81.707V82.2812H101.984C102.027 82.8047 102.201 83.2188 102.506 83.5234C102.814 83.8281 103.201 83.9805 103.666 83.9805C104.318 83.9805 104.85 83.7168 105.26 83.1895L106.027 83.9219C105.773 84.3008 105.434 84.5957 105.008 84.8066C104.586 85.0137 104.111 85.1172 103.584 85.1172ZM103.414 79.6855C103.023 79.6855 102.707 79.8223 102.465 80.0957C102.227 80.3691 102.074 80.75 102.008 81.2383H104.721V81.1328C104.689 80.6562 104.562 80.2969 104.34 80.0547C104.117 79.8086 103.809 79.6855 103.414 79.6855ZM108.559 78.6602L108.6 79.3926C109.068 78.8262 109.684 78.543 110.445 78.543C111.766 78.543 112.438 79.2988 112.461 80.8105V85H111.037V80.8926C111.037 80.4902 110.949 80.1934 110.773 80.002C110.602 79.8066 110.318 79.709 109.924 79.709C109.35 79.709 108.922 79.9688 108.641 80.4883V85H107.217V78.6602H108.559ZM117.471 83.2773C117.471 83.0234 117.365 82.8301 117.154 82.6973C116.947 82.5645 116.602 82.4473 116.117 82.3457C115.633 82.2441 115.229 82.1152 114.904 81.959C114.193 81.6152 113.838 81.1172 113.838 80.4648C113.838 79.918 114.068 79.4609 114.529 79.0938C114.99 78.7266 115.576 78.543 116.287 78.543C117.045 78.543 117.656 78.7305 118.121 79.1055C118.59 79.4805 118.824 79.9668 118.824 80.5645H117.4C117.4 80.291 117.299 80.0645 117.096 79.8848C116.893 79.7012 116.623 79.6094 116.287 79.6094C115.975 79.6094 115.719 79.6816 115.52 79.8262C115.324 79.9707 115.227 80.1641 115.227 80.4062C115.227 80.625 115.318 80.7949 115.502 80.916C115.686 81.0371 116.057 81.1602 116.615 81.2852C117.174 81.4062 117.611 81.5527 117.928 81.7246C118.248 81.8926 118.484 82.0957 118.637 82.334C118.793 82.5723 118.871 82.8613 118.871 83.2012C118.871 83.7715 118.635 84.2344 118.162 84.5898C117.689 84.9414 117.07 85.1172 116.305 85.1172C115.785 85.1172 115.322 85.0234 114.916 84.8359C114.51 84.6484 114.193 84.3906 113.967 84.0625C113.74 83.7344 113.627 83.3809 113.627 83.002H115.01C115.029 83.3379 115.156 83.5977 115.391 83.7812C115.625 83.9609 115.936 84.0508 116.322 84.0508C116.697 84.0508 116.982 83.9805 117.178 83.8398C117.373 83.6953 117.471 83.5078 117.471 83.2773ZM121.631 85H120.207V78.6602H121.631V85ZM120.119 77.0137C120.119 76.7949 120.188 76.6133 120.324 76.4688C120.465 76.3242 120.664 76.252 120.922 76.252C121.18 76.252 121.379 76.3242 121.52 76.4688C121.66 76.6133 121.73 76.7949 121.73 77.0137C121.73 77.2285 121.66 77.4082 121.52 77.5527C121.379 77.6934 121.18 77.7637 120.922 77.7637C120.664 77.7637 120.465 77.6934 120.324 77.5527C120.188 77.4082 120.119 77.2285 120.119 77.0137ZM124.971 77.1191V78.6602H126.09V79.7148H124.971V83.2539C124.971 83.4961 125.018 83.6719 125.111 83.7812C125.209 83.8867 125.381 83.9395 125.627 83.9395C125.791 83.9395 125.957 83.9199 126.125 83.8809V84.9824C125.801 85.0723 125.488 85.1172 125.188 85.1172C124.094 85.1172 123.547 84.5137 123.547 83.3066V79.7148H122.504V78.6602H123.547V77.1191H124.971ZM129.4 82.9609L130.689 78.6602H132.207L129.688 85.9609C129.301 87.0273 128.645 87.5605 127.719 87.5605C127.512 87.5605 127.283 87.5254 127.033 87.4551V86.3535L127.303 86.3711C127.662 86.3711 127.932 86.3047 128.111 86.1719C128.295 86.043 128.439 85.8242 128.545 85.5156L128.75 84.9707L126.523 78.6602H128.059L129.4 82.9609Z" fill="white"/>
<defs>
<filter id="filter0_d" x="0" y="0" width="216" height="110" filterUnits="userSpaceOnUse" color-interpolation-filters="sRGB">
<feFlood flood-opacity="0" result="BackgroundImageFix"/>
<feColorMatrix in="SourceAlpha" type="matrix" values="0 0 0 0 0 0 0 0 0 0 0 0 0 0 0 0 0 0 127 0" result="hardAlpha"/>
<feOffset dx="2" dy="4"/>
<feGaussianBlur stdDeviation="2"/>
<feComposite in2="hardAlpha" operator="out"/>
<feColorMatrix type="matrix" values="0 0 0 0 0 0 0 0 0 0 0 0 0 0 0 0 0 0 0.35 0"/>
<feBlend mode="normal" in2="BackgroundImageFix" result="effect1_dropShadow"/>
<feBlend mode="normal" in="SourceGraphic" in2="effect1_dropShadow" result="shape"/>
</filter>
<filter id="filter1_i" x="180" y="16" width="18" height="22" filterUnits="userSpaceOnUse" color-interpolation-filters="sRGB">
<feFlood flood-opacity="0" result="BackgroundImageFix"/>
<feBlend mode="normal" in="SourceGraphic" in2="BackgroundImageFix" result="shape"/>
<feColorMatrix in="SourceAlpha" type="matrix" values="0 0 0 0 0 0 0 0 0 0 0 0 0 0 0 0 0 0 127 0" result="hardAlpha"/>
<feOffset dy="4"/>
<feGaussianBlur stdDeviation="2"/>
<feComposite in2="hardAlpha" operator="arithmetic" k2="-1" k3="1"/>
<feColorMatrix type="matrix" values="0 0 0 0 0 0 0 0 0 0 0 0 0 0 0 0 0 0 0.75 0"/>
<feBlend mode="normal" in2="shape" result="effect1_innerShadow"/>
</filter>
<linearGradient id="paint0_linear" x1="-16.5" y1="-12" x2="220.5" y2="102" gradientUnits="userSpaceOnUse">
<stop stop-color="#323232"/>
<stop offset="1" stop-color="#1C1C1C"/>
</linearGradient>
</defs>
</svg>
